<svg xmlns="http://www.w3.org/2000/svg" width="42" height="42" viewBox="0 0 42 42">
  <g id="Contacts" transform="translate(-15 -292)">
    <path id="Path_597" data-name="Path 597" d="M21,0A21,21,0,1,1,0,21,21,21,0,0,1,21,0Z" transform="translate(15 292)" fill="#38e0ec"/>
    <path id="contact-list" d="M21.8,28.132H15.483a1.1,1.1,0,1,1,0-2.2H21.8a4.4,4.4,0,0,0,4.4-4.4V6.593a4.4,4.4,0,0,0-4.4-4.4H15.483a1.1,1.1,0,0,1,0-2.2H21.8A6.6,6.6,0,0,1,28.4,6.593V21.538A6.6,6.6,0,0,1,21.8,28.132Zm-9.615-1.1V1.1a1.1,1.1,0,0,0-1.1-1.1h-1.1A6.6,6.6,0,0,0,3.4,6.593V21.538a6.6,6.6,0,0,0,6.593,6.593h1.1A1.1,1.1,0,0,0,12.187,27.033Zm-2.2-1.1a4.4,4.4,0,0,1-4.4-4.4V6.593a4.4,4.4,0,0,1,4.4-4.4ZM22.461,10.659a3.3,3.3,0,1,0-3.3,3.3A3.3,3.3,0,0,0,22.461,10.659Zm-2.2,0a1.1,1.1,0,1,1-1.1-1.1A1.1,1.1,0,0,1,20.264,10.659Zm3.791,9.011a4.543,4.543,0,0,0-4.569-4.505h-.643a4.543,4.543,0,0,0-4.569,4.505,1.1,1.1,0,0,0,2.2,0,2.343,2.343,0,0,1,2.371-2.308h.643a2.343,2.343,0,0,1,2.371,2.308,1.1,1.1,0,0,0,2.2,0Z" transform="translate(20 299)" fill="#fff"/>
  </g>
</svg>
