<svg xmlns="http://www.w3.org/2000/svg" width="42" height="42" viewBox="0 0 42 42">
  <g id="Profile" transform="translate(-15 -292)">
    <circle id="Ellipse_2" data-name="Ellipse 2" cx="21" cy="21" r="21" transform="translate(15 292)" fill="#3838ec"/>
    <path id="profile-2" data-name="profile" d="M19.141,25H5.859A5.866,5.866,0,0,1,0,19.141V5.859A5.866,5.866,0,0,1,5.859,0H19.141A5.866,5.866,0,0,1,25,5.859V19.141A5.866,5.866,0,0,1,19.141,25ZM5.859,1.953A3.911,3.911,0,0,0,1.953,5.859V19.141a3.911,3.911,0,0,0,3.906,3.906H19.141a3.911,3.911,0,0,0,3.906-3.906V5.859a3.911,3.911,0,0,0-3.906-3.906ZM21.094,6.3a.977.977,0,0,0-.977-.977H4.883a.977.977,0,0,0,0,1.953H20.117A.977.977,0,0,0,21.094,6.3ZM7.458,15.771a2.93,2.93,0,1,1,2.93-2.93A2.933,2.933,0,0,1,7.458,15.771Zm0-3.906a.977.977,0,1,0,.977.977A.978.978,0,0,0,7.458,11.865Zm13.636-.049a.977.977,0,0,0-.977-.977H13.477a.977.977,0,0,0,0,1.953h6.641A.977.977,0,0,0,21.094,11.816Zm0,3.418a.977.977,0,0,0-.977-.977H13.477a.977.977,0,0,0,0,1.953h6.641A.977.977,0,0,0,21.094,15.234Zm-2.441,3.418a.977.977,0,0,0-.977-.977h-4.2a.977.977,0,0,0,0,1.953h4.2A.977.977,0,0,0,18.652,18.652Zm-13.11.769A2.376,2.376,0,0,1,7.15,18.8h.617a2.376,2.376,0,0,1,1.608.623.977.977,0,0,0,1.318-1.441,4.324,4.324,0,0,0-2.926-1.135H7.15a4.324,4.324,0,0,0-2.926,1.135.977.977,0,1,0,1.318,1.441Z" transform="translate(24 301)" fill="#fff"/>
  </g>
</svg>
