<svg xmlns="http://www.w3.org/2000/svg" width="42" height="42" viewBox="0 0 42 42">
  <g id="Settings" transform="translate(-15 -292)">
    <path id="Path_597" data-name="Path 597" d="M21,0A21,21,0,1,1,0,21,21,21,0,0,1,21,0Z" transform="translate(15 292)" fill="#ec8c38"/>
    <g id="settings-2" data-name="settings" transform="translate(23 300)">
      <g id="Group_4" data-name="Group 4">
        <g id="Group_3" data-name="Group 3">
          <path id="Path_598" data-name="Path 598" d="M25.454,10.432H23.493a10.741,10.741,0,0,0-1.324-3.19l1.387-1.387a.417.417,0,0,0,0-.59L20.607,2.313a.417.417,0,0,0-.59,0L18.629,3.7a10.73,10.73,0,0,0-3.19-1.322V.417A.417.417,0,0,0,15.022,0H10.849a.417.417,0,0,0-.417.417V2.378A10.729,10.729,0,0,0,7.242,3.7L5.854,2.313a.417.417,0,0,0-.59,0L2.313,5.264a.417.417,0,0,0,0,.59L3.7,7.241a10.741,10.741,0,0,0-1.322,3.19H.417A.417.417,0,0,0,0,10.849v4.173a.417.417,0,0,0,.417.417H2.378A10.741,10.741,0,0,0,3.7,18.63L2.313,20.017a.417.417,0,0,0,0,.59l2.951,2.951a.429.429,0,0,0,.59,0L7.241,22.17a10.741,10.741,0,0,0,3.19,1.322v1.961a.417.417,0,0,0,.417.417h4.173a.417.417,0,0,0,.417-.417V23.493a10.741,10.741,0,0,0,3.19-1.324l1.387,1.387a.417.417,0,0,0,.59,0l2.951-2.951a.417.417,0,0,0,0-.59L22.17,18.628a10.74,10.74,0,0,0,1.322-3.189h1.961a.417.417,0,0,0,.417-.417V10.849A.417.417,0,0,0,25.454,10.432ZM25.036,14.6H23.159a.417.417,0,0,0-.409.334,9.914,9.914,0,0,1-1.46,3.518.417.417,0,0,0,.053.526l1.33,1.33-2.361,2.361-1.33-1.33a.417.417,0,0,0-.526-.053,9.914,9.914,0,0,1-3.518,1.46.417.417,0,0,0-.334.409v1.878H11.266V23.159a.417.417,0,0,0-.334-.409,9.914,9.914,0,0,1-3.518-1.46.417.417,0,0,0-.526.053l-1.33,1.33L3.2,20.312l1.33-1.33a.417.417,0,0,0,.053-.526,9.914,9.914,0,0,1-1.46-3.518.417.417,0,0,0-.409-.334H.835V11.266H2.712a.417.417,0,0,0,.409-.334,9.914,9.914,0,0,1,1.46-3.518.417.417,0,0,0-.053-.526L3.2,5.559,5.559,3.2l1.33,1.33a.417.417,0,0,0,.526.053,9.917,9.917,0,0,1,3.517-1.46.417.417,0,0,0,.334-.409V.835H14.6V2.712a.417.417,0,0,0,.334.409,9.917,9.917,0,0,1,3.517,1.46.417.417,0,0,0,.526-.053l1.33-1.33,2.361,2.361-1.33,1.33a.417.417,0,0,0-.053.526,9.914,9.914,0,0,1,1.46,3.518.417.417,0,0,0,.409.334h1.878Z" fill="#fff" stroke="#fff" stroke-width="1"/>
        </g>
      </g>
      <g id="Group_6" data-name="Group 6" transform="translate(8.345 8.345)">
        <g id="Group_5" data-name="Group 5">
          <path id="Path_599" data-name="Path 599" d="M24.267,19.677a4.59,4.59,0,1,0,4.59,4.59A4.59,4.59,0,0,0,24.267,19.677Zm0,8.345a3.755,3.755,0,1,1,3.755-3.755A3.756,3.756,0,0,1,24.267,28.023Z" transform="translate(-19.677 -19.677)" fill="#fff" stroke="#fff" stroke-width="1"/>
        </g>
      </g>
    </g>
  </g>
</svg>
